# xmcd
#
# Track frame offsets:
#	150
#	13526
#	27523
#	40720
#	53507
#	66697
#	79954
#	94915
#	107880
#	119905
#	131820
#	144025
#	155193
#	169435
#	183727
#	196220
#	205997
#	218957
#	228824
#	244259
#	260682
#	274812
#
# Disc length: 3829 seconds
# Revision: 1
# Processed by: cddbd v1.5.2PL0 Copyright (c) Steve Scherf et al.
# Submitted via: dBpowerAMP V12.0
#
DISCID=570ef316
DTITLE=BD Blues - 09 Howlin' Wolf CD2 Chicago 1954-1956
DYEAR=2007
DGENRE=Blues
TTITLE0=No Place To Go (You Gonna Wreck My Life)
TTITLE1=Rockin' Daddy
TTITLE2=I'm The Wolf
TTITLE3=Neighbors
TTITLE4=Evil (Is Going On)
TTITLE5=Baby How Long
TTITLE6=I'll Be Around
TTITLE7=Forty-Four
TTITLE8=I Have A Little Girl
TTITLE9=Who Will Be Next
TTITLE10=Don't Mess With My Baby
TTITLE11=Come To Me Baby
TTITLE12=Smokestack Lightnin'
TTITLE13=You Can't Be Beat
TTITLE14=Break Of Day
TTITLE15=The Natchez Burning
TTITLE16=I Asked For Water (She Gave Me Gasoline)
TTITLE17=So Glad
TTITLE18=You Ought To Know
TTITLE19=Bluebird
TTITLE20=My Life
TTITLE21=Going Back Home
EXTD=
EXTT0=
EXTT1=
EXTT2=
EXTT3=
EXTT4=
EXTT5=
EXTT6=
EXTT7=
EXTT8=
EXTT9=
EXTT10=
EXTT11=
EXTT12=
EXTT13=
EXTT14=
EXTT15=
EXTT16=
EXTT17=
EXTT18=
EXTT19=
EXTT20=
EXTT21=
PLAYORDER=
